<svg xmlns="http://www.w3.org/2000/svg" width="385" height="101.797" viewBox="0 0 385 101.797">
  <g id="img_top_copy" transform="translate(-5652.741 -1012.154)">
    <path id="パス_8" data-name="パス 8" d="M5672.375,1018.7a47.041,47.041,0,0,0,6.271,19.808c.735,1.168,5.623,9.082,12.284,10.812.129.043.431.13.431.3,0,.216-.129.216-1.514.519a8.61,8.61,0,0,0-2.984,1.3c-.821.605-.951.735-1.081.735-.174,0-5.666-3.417-9.861-12.585a46.7,46.7,0,0,1-4.151-16.737c-.043-.476-.043-.519-.216-.519-.259,0-.259.173-.433,1.73-.129,1.384-1.254,11.461-5.536,18.51A23.9,23.9,0,0,1,5653,1052.868c-.129,0-.26-.043-.26-.216,0-.129.216-.3.563-.519a32.089,32.089,0,0,0,10.25-11.115c4.93-9.385,4.93-21.754,4.93-22.23a11.874,11.874,0,0,0-.173-2.638,5.963,5.963,0,0,1-.174-.865.37.37,0,0,1,.347-.346c.259,0,2.12.605,2.508.692,2.077.562,2.94.821,2.94,1.6,0,.476-.346.605-.735.692-.346.043-.563.086-.691.26A.825.825,0,0,0,5672.375,1018.7Z" transform="translate(0 -2.05)" fill="#1a1311"/>
    <path id="パス_9" data-name="パス 9" d="M5845.093,1022.565c1.34,0,1.34-.519,1.34-2.682a38.6,38.6,0,0,0-.259-5.06c-.044-.216-.347-1.167-.347-1.384s.172-.3.475-.3,4.672.432,4.672,1.513c0,.26-.909,1.081-1.037,1.3a25.746,25.746,0,0,0-.39,4.973c0,1.125.042,1.644,1.384,1.644h5.579c1.99,0,2.206,0,2.767-.735,1.3-1.773,1.427-1.946,1.817-1.946.475,0,3.936,2.9,3.936,3.287,0,.562-.994.562-2.292.562h-11.851c-.476,0-1.08,0-1.3.735-.085.346-.085,7.093-.085,8.347,0,1.341.085,1.86,1.428,1.86h4.281c2.032,0,2.248,0,2.768-.735,1.341-1.773,1.47-1.946,1.86-1.946.476,0,3.936,2.9,3.936,3.287,0,.562-1,.562-2.335.562h-10.466c-1.254,0-1.385.432-1.385,1.47,0,1.3.045,10.6.089,10.812.172.649.69.735,1.383.735h7.914c1.99,0,2.206,0,2.768-.735,1.3-1.773,1.427-1.989,1.816-1.989.477,0,3.936,2.9,3.936,3.287,0,.562-.994.562-2.291.562h-28.718c-3.805,0-5.061.087-5.448.13-.173,0-.78.087-.953.087-.129,0-.216-.087-.345-.26l-.864-.995c-.174-.216-.174-.216-.174-.3s.043-.087.174-.087c.259,0,1.6.13,1.9.13,2.118.087,3.892.173,5.924.173h8.26c.779,0,1.427,0,1.427-1.557V1036.88c0-.519-.259-1.038-1.253-1.038h-5.06c-3.806,0-5.061.086-5.449.086a7.628,7.628,0,0,1-.908.13c-.172,0-.259-.13-.39-.3l-.864-.995c-.131-.173-.174-.216-.174-.259,0-.086.043-.13.174-.13.3,0,1.6.13,1.9.173,2.12.086,3.893.13,5.925.13h4.8c1.3,0,1.3-.649,1.3-1.341v-8.476a1.081,1.081,0,0,0-1.253-1.124H5838c-1.341,0-1.428.13-2.509,1.946-2.378,3.979-5.319,7.525-6.011,7.525-.173,0-.217-.13-.217-.26,0-.087.692-1.384,1.082-2.076,4.757-8.779,5.58-14.358,5.709-15.223.085-.822.173-.908.259-.908s4.237,1.687,4.237,2.422c0,.346-1.382,1.3-1.556,1.557a16.624,16.624,0,0,0-1.384,3.287c0,.563.519.563,1.082.563Z" transform="translate(-129.511 -0.724)" fill="#1a1311"/>
    <path id="パス_10" data-name="パス 10" d="M6025.329,1033.9c0,.129.086.3.086.475a33.1,33.1,0,0,1,.433,4.671c0,2.9-.648,6.92-4.454,12.672-3.46,5.276-5.667,6.314-7.4,6.314-2.854,0-5.406-4.454-5.406-9.731a15.234,15.234,0,0,1,4.8-11.028,17.9,17.9,0,0,1,13.8-5.622c3.935,0,5.753.778,6.963,1.384a13.556,13.556,0,0,1,7.525,12.585,16.128,16.128,0,0,1-10.9,15.224,26.582,26.582,0,0,1-7.178,1.6c-.174,0-.433-.043-.433-.3,0-.13.086-.172,1.167-.605,4.5-1.773,13.884-5.492,13.884-16.261,0-1.687-.175-11.98-11.982-11.98C6025.372,1033.293,6025.329,1033.64,6025.329,1033.9Zm-14.056,13.277c0,2.811,1.125,6.661,3.762,6.661,1.255,0,2.292-.519,5.277-5.017,2.292-3.5,4.237-8.3,4.237-12.585,0-2.595-.172-2.811-.735-2.811C6019.708,1033.423,6011.273,1039,6011.273,1047.176Z" transform="translate(-261.916 -14.35)" fill="#1a1311"/>
    <path id="パス_11" data-name="パス 11" d="M6202.193,1026.609c0,.649-.259,1.125-1.642,2.033a119.676,119.676,0,0,0-9.991,8.649,32.552,32.552,0,0,0-4.023,4.671c0,.173.174.259.389.259.952,0,6.272-2.033,7.7-2.595,4.626-1.773,6.962-2.638,8.735-2.638.952,0,4.023.562,4.023,2.119,0,1.081-1.645,1.384-2.25,1.384-.26,0-1.384-.087-1.6-.087-3.46,0-11.721,1.687-11.721,7.871,0,4.066,2.725,4.714,7.743,5.882,2.162.519,2.594,1.817,2.594,2.206,0,.908-1.341,1.384-2.854,1.384-.3,0-9.211-.519-9.211-7.828a10.648,10.648,0,0,1,1.9-6.012,16.342,16.342,0,0,0,1.04-1.341c0-.043-.044-.13-.173-.13a14.244,14.244,0,0,0-3.244,1.73c-2.335,1.686-2.941,2.119-4.282,2.119-1.773,0-2.25-2.119-2.25-2.509,0-.822.391-1.211,1.644-2.335.39-.3,7.958-9.255,9.557-10.855,1.342-1.341,3.98-4.065,3.98-5.06a.727.727,0,0,0-.735-.735,5.058,5.058,0,0,0-2.769,1.557c-1.167,1.211-1.643,1.73-3.242,1.73-2.336,0-3.028-3.676-3.028-3.806s.042-.346.3-.346c.13,0,1.816.3,2.12.3a5.333,5.333,0,0,0,1.514-.216c4.238-1.081,4.714-1.211,5.751-1.211A3.919,3.919,0,0,1,6202.193,1026.609Z" transform="translate(-390.341 -7.838)" fill="#1a1311"/>
    <path id="パス_12" data-name="パス 12" d="M6336.619,1033.9c0,.129.088.3.088.475a33.33,33.33,0,0,1,.432,4.671c0,2.9-.65,6.92-4.456,12.672-3.46,5.276-5.664,6.314-7.4,6.314-2.854,0-5.406-4.454-5.406-9.731a15.241,15.241,0,0,1,4.8-11.028,17.9,17.9,0,0,1,13.8-5.622,14.094,14.094,0,0,1,6.964,1.384,13.556,13.556,0,0,1,7.525,12.585,16.13,16.13,0,0,1-10.9,15.224,26.584,26.584,0,0,1-7.177,1.6c-.174,0-.434-.043-.434-.3,0-.13.086-.172,1.168-.605,4.5-1.773,13.881-5.492,13.881-16.261,0-1.687-.171-11.98-11.978-11.98C6336.663,1033.293,6336.619,1033.64,6336.619,1033.9Zm-14.055,13.277c0,2.811,1.123,6.661,3.762,6.661,1.254,0,2.292-.519,5.278-5.017,2.291-3.5,4.237-8.3,4.237-12.585,0-2.595-.172-2.811-.734-2.811C6331,1033.423,6322.564,1039,6322.564,1047.176Z" transform="translate(-491.033 -14.35)" fill="#1a1311"/>
    <path id="パス_13" data-name="パス 13" d="M6518.141,1035.421c-1.255,0-1.255.519-1.255,2.985,0,.432,0,2.724.086,3.07a.57.57,0,0,0,.563.432c.476,0,.822-.562.865-.649.735-1.341.821-1.514,1.255-1.514.476,0,2.81,2.206,2.81,2.725,0,.606-.864.606-2.291.606h-1.946c-1.081,0-1.255.735-1.255.995,0,.822.13,5.06.13,6.055,0,1.47-1.471,1.557-1.945,1.557-1.341,0-1.341-.778-1.341-1.125s.172-1.817.215-2.162c.087-.822.217-2.941.217-4.109a1.191,1.191,0,0,0-1.34-1.211c-1.342,0-2.812,0-4.541.086-.215,0-1.687.13-1.817.13s-.216-.086-.389-.26l-.823-.994c-.172-.216-.172-.26-.172-.3,0-.086.085-.086.13-.086.39,0,2.292.173,2.681.173a.868.868,0,0,0,.908-.778c0-.822-.043-4.714-.043-5.579a.6.6,0,0,0-.648-.605,1.25,1.25,0,0,0-.648.259,32.133,32.133,0,0,0-1.427,3.5,21.09,21.09,0,0,1-13.666,11.634c-.087,0-.217-.043-.217-.173a26.929,26.929,0,0,1,2.508-1.73c1.428-1.081,5.147-3.936,5.147-4.757,0-.173-.562-.692-.65-.865a21.565,21.565,0,0,1-.605-2.508c-.216-.778-.475-1.816-.908-1.816a5.537,5.537,0,0,0-2.076,1.946c-.043.346.043,2.854.043,3.374,0,.259-.217,2.335-2.076,2.335-1.124,0-1.167-.562-1.167-1.081a1.151,1.151,0,0,0-1.255-1.125h-1.729c-1.082,0-1.082.951-1.082,1.643,0,.519,0,2.205-1.73,2.205-1.082,0-1.3-.562-1.3-1.124,0-.476.259-2.638.3-3.114.389-5.709.389-16.78.389-24.046,0-.605-.3-3.46-.3-4.109,0-.173,0-.519.434-.519a5.727,5.727,0,0,1,2.249,1.081,2.975,2.975,0,0,0,1.687.519h1.382a1.7,1.7,0,0,0,1.514-.692c.432-.649.563-.865.821-.865s3.245,1.73,3.245,2.422c0,.433-.606.822-.778.952-.562.389-.562.605-.562,2.379,0,1.989-.174,11.677-.174,13.883,0,.562.043,3.373.043,4.022,0,.086.043.216.173.216.521,0,4.456-6.4,5.147-10.25.216-1.167.216-1.3.476-1.3.216,0,2.076.735,2.422.865.822.346,1.082.433,1.082.908,0,.389-.13.476-.952.952a20.433,20.433,0,0,0-2.119,3.244c0,.259.217.259.346.259h1.644a1.274,1.274,0,0,0,1.124-.476c.519-.606.692-.822.952-.822.476,0,2.421,1.557,2.9,1.773a4.909,4.909,0,0,0,2.292.433h1.773c1.3,0,1.3-.908,1.3-.908a20.75,20.75,0,0,0-.173-3.633,11.663,11.663,0,0,1-.431-1.3c0-.433.346-.519.6-.519s2.077.562,2.509.692c.519,0,1.167-1.254,1.167-1.6a.572.572,0,0,0-.648-.562h-16.133a.766.766,0,0,0-.907.605c-.563,1.471-1.644,2.855-2.985,2.855-1.123,0-1.167-1-1.167-1.514a2.691,2.691,0,0,1,.821-1.9,6.835,6.835,0,0,0,1.9-3.157c.043-.13.171-.649.3-.649a6.752,6.752,0,0,1,1.167,1.687c.3.649.433.908.952.908h16.088a1.512,1.512,0,0,0,1.168-.432c.13-.13.648-.995.821-.995.3,0,4.023,2.379,4.023,3.33,0,.692-.605.735-.864.735-.218,0-1.342-.13-1.558-.13-.865,0-1.038.086-2.594.822-.174.086-.346.216-.346.389,0,.13.433.562.433.692,0,.389-.3.519-.995.822-.433.173-.433.3-.433,3.2a.491.491,0,0,0,.39.519c.345,0,.475-.26,1.211-1.47.172-.216.388-.605.778-.605.432,0,2.768,1.946,2.768,2.638,0,.605-.866.605-2.336.605Zm-28.414,0c-1.256,0-1.256,1-1.256,1.99,0,.563,0,4.325.086,4.584a1.1,1.1,0,0,0,1.169.735h1.9a1.042,1.042,0,0,0,1.081-.6,45.141,45.141,0,0,0,.174-4.974c0-.735,0-1.73-1.254-1.73Zm.128-9.039c-.734,0-1.3.389-1.3,1.124v5.666c0,.475.346,1.081,1.3,1.081h1.86c.778,0,1.3-.346,1.3-1.081v-5.666c0-.087,0-1.124-1.3-1.124Zm.044-8.866a1.161,1.161,0,0,0-1.3,1.211V1024a1.187,1.187,0,0,0,1.3,1.255h1.86a1.147,1.147,0,0,0,1.253-1.211v-5.276a1.172,1.172,0,0,0-1.253-1.254Zm11.634,17.04c-.649,0-.822.216-1.255.822a25.438,25.438,0,0,0-1.686,2.162c0,.26.13.389.432.562a8.883,8.883,0,0,1,2.509,2.335c.042.13.086.216.3.216.3,0,.779-1.038.951-1.514.173-.346,1.6-3.892,1.6-4.022,0-.476-.39-.562-.692-.562Zm2.508-17.689c-.648,0-5.189-.043-5.189-.432,0-.173.26-.26.735-.3,2.9-.39,13.018-1.99,15.267-3.071a15,15,0,0,1,1.6-.908c.346,0,.562.13,2.508,1.3,2.163,1.254,2.379,1.427,2.379,1.86,0,.951-.908.951-1.124.951-.3,0-1.646-.173-1.9-.173C6516.065,1016.09,6506.073,1016.868,6504.041,1016.868Zm-3.33,1.081c0-.087.044-.13.173-.13.519,0,4.023,2.854,4.023,4.93a1.878,1.878,0,0,1-1.687,1.9c-1.341,0-1.384-1.427-1.427-2.163a8.486,8.486,0,0,0-.476-3.07C6501.274,1019.247,6500.711,1017.992,6500.711,1017.949Zm6.444-.13c0-.086.042-.173.129-.173.26,0,4.109,2.292,4.109,5.017a1.911,1.911,0,0,1-1.859,1.9c-1.125,0-1.383-.649-1.383-1.427a11.082,11.082,0,0,0-.65-4.239A7.506,7.506,0,0,1,6507.155,1017.82Zm5.362,17.6a1.037,1.037,0,0,0-1.167,1.038c0,.692-.044,3.849-.044,4.455a.99.99,0,0,0,1.037,1.038h.911a.9.9,0,0,0,.994-.865c0-5.579,0-5.666-.951-5.666Zm2.683-11.72a8.312,8.312,0,0,1-1.255.865c-.085,0-.085-.13-.085-.173,0-.173,1.6-4.8,1.686-6.012.042-.216.042-1.211.129-1.47.044-.3.39-.3.519-.3.172,0,4.064,1.168,4.064,2.249,0,.216-.171.346-.345.476-.13.087-.779.3-.908.39C6518.227,1020.155,6515.8,1023.182,6515.2,1023.7Z" transform="translate(-612.828)" fill="#1a1311"/>
    <path id="パス_14" data-name="パス 14" d="M6679,1018.988a1.348,1.348,0,0,0,1.211-.475c.431-.476.777-.822,1.166-.822.477,0,2.639,1.6,2.639,2.205,0,.216-.691.865-.821,1.038-.3.39-.3.735-.3,1.9,0,1.125.215,6.617.215,7.871,0,2.379-1.21,2.811-1.815,2.811-1.038,0-1.168-.822-1.255-1.514-.129-.908-.6-.908-1.427-.908h-5.363c-.691,0-1.384,0-1.6.562a20.763,20.763,0,0,0-.13,3.071c0,1.99,0,9.3.043,10.942.043.951.173,5.536.173,6.574,0,.779,0,3.114-2.249,3.114-1.124,0-1.124-1.211-1.124-1.514,0-.13.043-1.168.043-1.73.434-12.845.434-15.7.434-20.456,0-2.638,0-9.125-.045-9.688-.043-.346-.259-3.935-.259-3.978,0-.173,0-.432.173-.432a6.446,6.446,0,0,1,2.032.778c1.124.605,1.256.649,1.858.649Zm-6.185,6.617c-.865,0-1.3,0-1.3.865v2.508c0,.952.345.952,1.3.952h6.1c.865,0,1.3,0,1.3-.865V1026.6c0-.952-.347-.995-1.3-.995Zm0-5.45c-1,0-1.255,0-1.255,1.081v2.335c0,.908.39.908,1.255.908H6679c1,0,1.253,0,1.253-1.124v-2.335c0-.865-.389-.865-1.253-.865Zm15.742,16.262a1.03,1.03,0,0,0,.994-.39c.346-.389.821-.865,1.211-.865.433,0,2.552,1.427,2.552,2.205a.975.975,0,0,1-.26.562,1.911,1.911,0,0,0-.605,1.3c-.13,1.124,0,7.957,0,9,0,1.168,0,1.73-.39,2.206a2.758,2.758,0,0,1-1.815.951c-.951,0-.951-.908-.951-1.557,0-1.038-.562-1.038-1.428-1.038h-5.363c-.994,0-1.211.173-1.3.995-.173,1.3-.908,2.033-1.989,2.033-.562,0-1-.216-1-1.557,0-.3.044-1.471.087-1.86.13-2.249.173-3.547.173-5.363,0-.216,0-4.368-.129-5.925,0-.173-.131-1.124-.131-1.341,0-.346.174-.389.39-.389.477,0,2.682,1.038,3.2,1.038Zm-6.271,1.167c-1.038,0-1.124.086-1.124,1.384v2.162c.129.605.475.605,1.124.605h6.1c.646,0,.994,0,1.124-.605v-2.465c0-1.081-.3-1.081-1.124-1.081Zm.087,5.32c-.822,0-1.211,0-1.211.908v2.984c0,.822.431.822,1.211.822h5.924c.952,0,1.212,0,1.212-1.125,0-.389,0-2.768-.043-2.984-.13-.605-.3-.605-1.169-.605Zm16.606-24a.954.954,0,0,0,.908-.346c.52-.562.691-.692.952-.692.346,0,2.811,1.384,2.811,2.206,0,.259-.217.476-.477.692-.69.605-.69.735-.69,2.292,0,3.979.086,23.613.086,28.068,0,1.73-.216,2.768-1.729,3.547a7.2,7.2,0,0,1-2.033.692c-.476,0-.778-.432-1.211-1.167a3.006,3.006,0,0,0-1.21-1.255c-.3-.173-2.12-.649-2.12-1.038,0-.216,1.6-.3,2.033-.3,2.812-.13,3.243-.346,3.374-1.557.042-.432.128-11.287.128-17.472,0-1.341-.605-1.341-1.687-1.341H6692.5c-1,0-1.125.216-1.256.908-.128.952-1.21,1.384-1.988,1.384a.95.95,0,0,1-1.038-.822c-.043-.259-.043-8.779-.043-9.428s-.217-3.849-.217-4.584c0-.216.087-.735.476-.735a5.961,5.961,0,0,1,2.033.692,1.864,1.864,0,0,0,1.124.26Zm-.39,5.363c.778,0,1.211,0,1.211-.952v-2.638c-.128-.649-.519-.649-1.211-.649h-6.356c-.735,0-1.212,0-1.212.995,0,.649,0,2.422.044,2.595.087.649.563.649,1.168.649Zm0,5.838c.822,0,1.211,0,1.211-.908v-2.854c0-.908-.347-.908-1.211-.908h-6.271c-.864,0-1.254,0-1.254.865v2.854c0,.951.346.951,1.254.951Z" transform="translate(-747.525 -3.98)" fill="#1a1311"/>
    <path id="パス_15" data-name="パス 15" d="M6844,1042.319c0-1.3,1.21-2.681,4.152-6.1,1.945-2.249,3.677-5.839,3.677-6.444,0-.259-.3-.3-.476-.3-.433,0-2.208.346-2.595.346-1.645,0-3.85-2.119-3.85-3.806,0-.13,0-.3.26-.3a9.742,9.742,0,0,1,1.643.822,6.877,6.877,0,0,0,2.854.779c3.546,0,3.546-1.168,3.546-2.033a3.461,3.461,0,0,0-.345-1.514c-.131-.216-1.038-.995-1.038-1.254,0-.346,1.124-.692,1.9-.692,1.04,0,2.12.389,2.207,1.341.043.562.216.649,1.946.778.3,0,1.944.216,1.944,1.125,0,1.427-3.156,2.638-5.146,3.417-.648.259-.691.346-1.644,2.552a33.394,33.394,0,0,1-2.334,4.671c-.216.389-.3.519-.3.692a.159.159,0,0,0,.173.173,8.6,8.6,0,0,0,1.342-.476,4.038,4.038,0,0,1,1.686-.346,3.9,3.9,0,0,1,3.676,2.638c.3.735.345.822.433.822a20.463,20.463,0,0,0,1.773-2.336c1.426-1.989,4.237-5.925,8-5.925a4.079,4.079,0,0,1,4.066,3.849c0,2.033-3.417,3.46-6.1,4.628-1.082.476-5.967,2.422-6.746,2.9-.693.433-.736.908-.736,1.817,0,.389.088,2.206.088,2.595,0,.692,0,3.157-1.6,3.157-1.168,0-1.341-1.427-1.341-2.206,0-.432.13-2.508.13-2.552,0-.173,0-.519-.3-.519-.348,0-4.2,2.682-4.2,5.146,0,2.984,4.326,2.984,5.58,2.984a13.343,13.343,0,0,0,2.767-.26c.605-.087,3.374-.778,3.936-.778.909,0,2.12.432,2.12,1.47,0,2.682-6.7,2.855-7.742,2.855-5.492,0-8.389-2.249-8.389-5.666,0-2.768,1.642-4.151,5.707-7.438a1.841,1.841,0,0,0,.649-1.514c0-1.946-.346-4.368-2.075-4.368-1.645,0-4.195,1.989-5.32,4.584-.476,1.081-.951,2.119-2.336,2.119C6844.818,1043.747,6844,1043.487,6844,1042.319Zm11.028-16.348c.087,0,2.162-.562,2.162-1.038,0-.562-1.08-.648-1.469-.648-.6,0-.778,1.211-.778,1.384S6854.939,1025.972,6855.025,1025.972Zm3.936,14.012c0,.086.043.216.172.216s8.649-3.46,8.649-6.314a1.33,1.33,0,0,0-1.513-1.3C6862.681,1032.589,6858.961,1039.292,6858.961,1039.984Z" transform="translate(-876.794 -7.114)" fill="#1a1311"/>
    <path id="パス_16" data-name="パス 16" d="M6982.865,1127.214a4.8,4.8,0,1,1-9.6-.043,4.8,4.8,0,0,1,9.6.043Zm-8.392-.043a3.628,3.628,0,0,0,3.635,3.633,3.571,3.571,0,0,0,3.59-3.547,3.628,3.628,0,0,0-3.677-3.633A3.5,3.5,0,0,0,6974.474,1127.172Z" transform="translate(-971.938 -81.154)" fill="#1a1311"/>
    <path id="パス_17" data-name="パス 17" d="M5655.865,1298.085c-.952,0-.994-.562-.994-.692,0-.692.648-.692,2.205-.692,2.335,0,3.459-.13,3.978-1.341.3-.735.3-8.347.3-9.861,0-2.076-.088-12.153-.088-14.445,0-2.032-.6-2.032-4.238-2.032-1.037,0-1.471,0-1.471-.562s.434-.606,1.774-.692a20.248,20.248,0,0,0,4.887-1.081,18.644,18.644,0,0,1,2.12-.951c.476,0,.476.13.476,2.076,0,1.168-.087,6.747-.087,8.044,0,1.99.044,18.6.173,19.073.3,1.254.908,1.773,4.11,1.773.388,0,1.038,0,1.038.779,0,.605-.693.605-1.083.605Z" transform="translate(-1.568 -186.642)" fill="#1a1311"/>
    <path id="パス_18" data-name="パス 18" d="M5766.062,1294.624c-.259,0-1.167,0-1.255.908-.086,1.125-.172,2.335-2.076,2.335-1.427,0-1.514-.865-1.514-1.6,0-.173.26-8.822.26-10.466,0-4.714,0-15.007-.346-19.375-.045-.389-.259-2.206-.259-2.595,0-.216.042-.346.259-.346.173,0,.389.086,2.032.908a3.989,3.989,0,0,0,2.162.605h13.234c.909,0,1.254,0,1.557-.433.649-.908.821-1.124,1.254-1.124.606,0,3.763,2.032,3.763,2.681,0,.3-.216.476-.951,1.125-.563.432-.779.735-.779,2.811,0,4.628.043,5.406.086,9.212.043,2.465.345,13.407.345,15.655a2.175,2.175,0,0,1-2.162,2.378c-.129,0-1.254,0-1.383-1.643-.044-.736-.044-1.038-.908-1.038Zm12.975-15.7c1.254,0,1.254-.822,1.254-1.384,0-.519-.13-10.6-.216-10.812a1.065,1.065,0,0,0-1.081-.562h-13.365a.964.964,0,0,0-.994.648c-.086.346-.086,9.731-.086,10.509,0,.822.044,1.6,1.21,1.6Zm-.043,14.531c.389,0,1.167,0,1.253-.908.044-.26.044-9.861.044-10.856,0-.908-.086-1.643-1.254-1.643H5765.8c-1.125,0-1.254.649-1.254,1.514,0,1.427.13,8.39.13,9.947,0,1.384.129,1.946,1.3,1.946Z" transform="translate(-79.587 -184.955)" fill="#1a1311"/>
    <path id="パス_19" data-name="パス 19" d="M5897.839,1281.319c0-1.3,1.21-2.681,4.151-6.1,1.946-2.249,3.677-5.839,3.677-6.444,0-.259-.3-.3-.475-.3-.433,0-2.207.346-2.6.346-1.644,0-3.85-2.119-3.85-3.806,0-.13,0-.3.259-.3a9.735,9.735,0,0,1,1.644.822,6.877,6.877,0,0,0,2.855.778c3.545,0,3.545-1.168,3.545-2.033a3.45,3.45,0,0,0-.346-1.513c-.13-.216-1.038-.995-1.038-1.254,0-.346,1.125-.692,1.9-.692,1.038,0,2.12.389,2.208,1.34.042.562.215.649,1.945.779.3,0,1.946.216,1.946,1.125,0,1.427-3.157,2.638-5.146,3.417-.649.26-.692.346-1.644,2.552a33.494,33.494,0,0,1-2.335,4.671c-.216.389-.3.519-.3.692a.159.159,0,0,0,.174.173,8.674,8.674,0,0,0,1.341-.475,4.04,4.04,0,0,1,1.685-.346,3.9,3.9,0,0,1,3.678,2.638c.3.736.346.822.432.822a20.157,20.157,0,0,0,1.774-2.335c1.427-1.99,4.236-5.925,8-5.925a4.08,4.08,0,0,1,4.066,3.849c0,2.033-3.418,3.46-6.1,4.628-1.082.476-5.968,2.422-6.746,2.9-.694.433-.736.908-.736,1.817,0,.389.086,2.205.086,2.594,0,.692,0,3.158-1.6,3.158-1.167,0-1.339-1.427-1.339-2.206,0-.433.128-2.508.128-2.552,0-.173,0-.519-.3-.519-.346,0-4.2,2.681-4.2,5.146,0,2.984,4.325,2.984,5.58,2.984a13.384,13.384,0,0,0,2.768-.259c.6-.087,3.374-.779,3.936-.779.909,0,2.118.432,2.118,1.47,0,2.682-6.7,2.855-7.74,2.855-5.492,0-8.391-2.249-8.391-5.666,0-2.768,1.644-4.152,5.708-7.439a1.841,1.841,0,0,0,.649-1.513c0-1.946-.346-4.368-2.075-4.368-1.645,0-4.2,1.989-5.32,4.584-.476,1.081-.952,2.119-2.335,2.119C5898.661,1282.747,5897.839,1282.487,5897.839,1281.319Zm11.028-16.347c.088,0,2.163-.562,2.163-1.038,0-.562-1.082-.648-1.472-.648-.6,0-.777,1.211-.777,1.384S5908.782,1264.972,5908.868,1264.972Zm3.935,14.012c0,.086.044.216.174.216s8.649-3.46,8.649-6.314a1.331,1.331,0,0,0-1.513-1.3C5916.522,1271.589,5912.8,1278.292,5912.8,1278.984Z" transform="translate(-180.398 -183.025)" fill="#1a1311"/>
    <path id="パス_20" data-name="パス 20" d="M6027.225,1374.512c-.906,0-1.08-.3-2.508-2.9a12.209,12.209,0,0,0-4.54-4.628c-.131-.086-.605-.389-.605-.519s.129-.3.475-.3c1.515,0,8.866,2.249,8.866,6.271A2.079,2.079,0,0,1,6027.225,1374.512Z" transform="translate(-269.996 -260.561)" fill="#1a1311"/>
    <path id="パス_21" data-name="パス 21" d="M6120.276,1265.609c0,.649-.26,1.124-1.643,2.033a120.056,120.056,0,0,0-9.993,8.65,32.614,32.614,0,0,0-4.021,4.671c0,.173.172.259.388.259.952,0,6.272-2.032,7.7-2.595,4.627-1.773,6.963-2.638,8.736-2.638.952,0,4.022.562,4.022,2.119,0,1.081-1.645,1.384-2.25,1.384-.258,0-1.384-.087-1.6-.087-3.461,0-11.722,1.687-11.722,7.871,0,4.066,2.726,4.714,7.741,5.882,2.163.519,2.595,1.816,2.595,2.205,0,.909-1.34,1.384-2.853,1.384-.3,0-9.212-.519-9.212-7.828a10.64,10.64,0,0,1,1.9-6.011,16.778,16.778,0,0,0,1.038-1.341c0-.043-.043-.129-.172-.129a14.226,14.226,0,0,0-3.244,1.73c-2.336,1.687-2.942,2.119-4.283,2.119-1.773,0-2.249-2.119-2.249-2.509,0-.822.388-1.211,1.643-2.335.391-.3,7.958-9.255,9.557-10.855,1.341-1.341,3.979-4.065,3.979-5.06a.728.728,0,0,0-.736-.735,5.063,5.063,0,0,0-2.768,1.557c-1.167,1.211-1.643,1.73-3.242,1.73-2.338,0-3.028-3.676-3.028-3.806s.042-.346.3-.346c.128,0,1.815.3,2.119.3a5.313,5.313,0,0,0,1.513-.216c4.239-1.081,4.714-1.211,5.751-1.211A3.919,3.919,0,0,1,6120.276,1265.609Z" transform="translate(-330.048 -183.748)" fill="#1a1311"/>
    <path id="パス_22" data-name="パス 22" d="M6254.7,1272.9c0,.129.087.3.087.475a33.014,33.014,0,0,1,.433,4.671c0,2.9-.65,6.92-4.455,12.672-3.46,5.276-5.665,6.314-7.4,6.314-2.854,0-5.4-4.454-5.4-9.731a15.235,15.235,0,0,1,4.8-11.029,17.893,17.893,0,0,1,13.8-5.622c3.936,0,5.753.778,6.963,1.384a13.557,13.557,0,0,1,7.525,12.585,16.13,16.13,0,0,1-10.9,15.223,26.58,26.58,0,0,1-7.179,1.6c-.173,0-.434-.043-.434-.3,0-.13.088-.173,1.168-.605,4.5-1.773,13.883-5.492,13.883-16.261,0-1.687-.175-11.98-11.98-11.98C6254.745,1272.294,6254.7,1272.64,6254.7,1272.9Zm-14.055,13.276c0,2.812,1.124,6.66,3.763,6.66,1.254,0,2.292-.519,5.277-5.017,2.292-3.5,4.236-8.3,4.236-12.585,0-2.595-.171-2.811-.734-2.811C6249.078,1272.423,6240.645,1278,6240.645,1286.176Z" transform="translate(-430.738 -190.26)" fill="#1a1311"/>
    <path id="パス_23" data-name="パス 23" d="M6417.7,1266.926c2.421-.865,2.724-.951,3.244-.951a1.348,1.348,0,0,1,1.384,1.211c0,.995-.822,1.254-2.421,1.817-2.9.951-8.217,11.763-8.217,17.169,0,1.773.95,7.049,6.747,7.049a10.469,10.469,0,0,0,8.606-4.671c2.9-4.844,2.984-13.277,2.984-15.223,0-1.124-.476-6.055-.476-7.049,0-1.167.433-2.508,1.774-2.508.865,0,1.211.735,1.211,1.946a14.238,14.238,0,0,0,3.286,10.163,10.9,10.9,0,0,0,2.293,2.033c2.292,1.6,2.638,2.119,2.638,2.941a1.8,1.8,0,0,1-1.514,1.816c-1.86,0-3.762-3.157-4.929-5.19-.476-.822-2.768-5.1-2.9-5.1-.172,0-.172.519-.172.562,0,4.281,0,9.644-1.083,14.142a12.4,12.4,0,0,1-11.979,9.558,8.935,8.935,0,0,1-9.168-9.168c0-5.276,2.551-9.947,5.06-14.445.173-.3,1.427-2.508,1.427-2.552,0-.13-.172-.216-.345-.216-.39,0-2.12.908-2.51.908-1.686,0-2.463-2.9-2.463-2.941,0-.216.086-.389.3-.389.086,0,1.688.173,1.946.173A19.14,19.14,0,0,0,6417.7,1266.926Z" transform="translate(-556.633 -185.195)" fill="#1a1311"/>
    <path id="パス_24" data-name="パス 24" d="M6578.265,1279.328c1.3-1.211,1.859-1.773,1.859-2.335a10.936,10.936,0,0,0-.39-1.341,13.917,13.917,0,0,1-.734-5.06c0-.995.216-6.012.216-7.136,0-2.162-.606-2.811-1.3-3.5-.909-.951-1.039-1.081-1.039-1.211,0-.173,1.039-.217,1.168-.217,2.466,0,4.672,1.99,4.672,3.244,0,.39-.521,2.335-.607,2.768a40.914,40.914,0,0,0-.389,5.709c0,1.643,0,5.146,1.125,5.146.6,0,.865-.173,3.2-1.643.476-.3,3.2-2.033,4.454-2.033a1.662,1.662,0,0,1,1.644,1.6c0,1.3-1.774,1.989-3.33,2.595-10.293,4.152-11.763,7.309-11.763,10.12,0,2.941,2.507,4.022,6.012,4.022a19.33,19.33,0,0,0,5.188-.779,11.764,11.764,0,0,1,3.243-.649c1.471,0,2.856.995,2.856,2.076,0,2.206-8.823,2.422-11.115,2.422-1.989,0-8.261,0-8.261-6.79A9.8,9.8,0,0,1,6578.265,1279.328Z" transform="translate(-678.789 -181.336)" fill="#1a1311"/>
    <path id="パス_25" data-name="パス 25" d="M6702.78,1279.328c1.3-1.211,1.859-1.773,1.859-2.335a10.765,10.765,0,0,0-.39-1.341,13.917,13.917,0,0,1-.734-5.06c0-.995.216-6.012.216-7.136,0-2.162-.605-2.811-1.3-3.5-.909-.951-1.04-1.081-1.04-1.211,0-.173,1.04-.217,1.168-.217,2.466,0,4.671,1.99,4.671,3.244,0,.39-.519,2.335-.605,2.768a40.8,40.8,0,0,0-.388,5.709c0,1.643,0,5.146,1.124,5.146.6,0,.864-.173,3.2-1.643.475-.3,3.2-2.033,4.455-2.033a1.661,1.661,0,0,1,1.643,1.6c0,1.3-1.773,1.989-3.33,2.595-10.292,4.152-11.763,7.309-11.763,10.12,0,2.941,2.509,4.022,6.011,4.022a19.325,19.325,0,0,0,5.189-.779,11.773,11.773,0,0,1,3.243-.649c1.471,0,2.856.995,2.856,2.076,0,2.206-8.823,2.422-11.116,2.422-1.989,0-8.259,0-8.259-6.79A9.805,9.805,0,0,1,6702.78,1279.328Z" transform="translate(-770.437 -181.336)" fill="#1a1311"/>
    <path id="パス_26" data-name="パス 26" d="M6828.983,1260.343c.735,2.638,1.946,4.454,2.248,4.454a4.048,4.048,0,0,0,1.688-.692c.864-.519,1-.605,1.514-.605a1.348,1.348,0,0,1,1.47,1.3,2.467,2.467,0,0,1-1.859,2.12c-.129.043-1.039.389-1.039.519.3.519,2.25,3.633,2.637,3.633.175,0,1.559-.476,1.559-1.211,0-.173-.562-.778-.562-.951,0-.346.431-.389.6-.433,1.557-.13,2.424-.216,2.682-.216,1.427,0,2.551.692,2.551,1.9,0,.605-.086,1.6-3.805,2.941-1.124.389-1.253.476-1.253.649,0,.216.043.3,1.382,2.422,2.12,3.287,2.769,5.19,2.769,6.79a2.878,2.878,0,0,1-2.509,2.984c-1.082,0-1.383-.216-4.2-2.162a6.952,6.952,0,0,0-4.195-1.3c-3.892,0-5.709,2.508-5.709,4.454,0,3.2,3.806,3.417,4.931,3.417.693,0,3.589-.3,4.2-.3.518,0,2.032.173,2.032,1.557,0,2.465-4.541,2.465-5.059,2.465-1.253,0-8.521,0-8.521-6.055,0-2.508,1.86-6.79,8.391-6.79a17.881,17.881,0,0,1,4.152.519,7.951,7.951,0,0,0,1.9.26c.649,0,1.126-.217,1.126-.908a15.358,15.358,0,0,0-1.947-5.319c-.648-1.254-.691-1.384-1.081-1.384-.261,0-1.9.476-2.25.562a20.544,20.544,0,0,1-5.19.649c-2.593,0-4.367-.346-5.708-1.644a3.382,3.382,0,0,1-1.038-1.86.4.4,0,0,1,.39-.432,11.156,11.156,0,0,1,1.384.779,11.025,11.025,0,0,0,4.541.865c3.418,0,6.7-1.124,6.7-1.384s-2.423-4.065-2.94-4.065c-.088,0-2.379.389-2.812.389-3.374,0-5.925-2.335-5.925-3.157a.337.337,0,0,1,.346-.346,8.56,8.56,0,0,1,1.125.389,7.911,7.911,0,0,0,2.983.605c1.038,0,2.551-.216,2.551-.519,0-.13-2.335-3.546-4.41-4.584-1.254-.605-1.428-.649-1.428-.952,0-.432.822-1.168,1.687-1.168C6826.043,1258.526,6828.594,1259.045,6828.983,1260.343Z" transform="translate(-859.791 -181.336)" fill="#1a1311"/>
    <path id="パス_27" data-name="パス 27" d="M6945.577,1281.319c0-1.3,1.21-2.681,4.151-6.1,1.946-2.249,3.677-5.839,3.677-6.444,0-.259-.3-.3-.477-.3-.433,0-2.2.346-2.595.346-1.645,0-3.85-2.119-3.85-3.806,0-.13,0-.3.259-.3a9.739,9.739,0,0,1,1.645.822,6.879,6.879,0,0,0,2.854.778c3.546,0,3.546-1.168,3.546-2.033a3.464,3.464,0,0,0-.346-1.513c-.131-.216-1.037-.995-1.037-1.254,0-.346,1.124-.692,1.9-.692,1.038,0,2.118.389,2.206,1.34.042.562.216.649,1.946.779.3,0,1.945.216,1.945,1.125,0,1.427-3.158,2.638-5.147,3.417-.648.26-.69.346-1.643,2.552a33.494,33.494,0,0,1-2.335,4.671c-.216.389-.3.519-.3.692a.157.157,0,0,0,.172.173,8.568,8.568,0,0,0,1.341-.475,4.053,4.053,0,0,1,1.687-.346,3.9,3.9,0,0,1,3.677,2.638c.3.736.346.822.433.822a20.326,20.326,0,0,0,1.773-2.335c1.426-1.99,4.238-5.925,8-5.925a4.079,4.079,0,0,1,4.065,3.849c0,2.033-3.416,3.46-6.1,4.628-1.081.476-5.968,2.422-6.746,2.9-.691.433-.736.908-.736,1.817,0,.389.087,2.205.087,2.594,0,.692,0,3.158-1.6,3.158-1.168,0-1.341-1.427-1.341-2.206,0-.433.129-2.508.129-2.552,0-.173,0-.519-.3-.519-.346,0-4.2,2.681-4.2,5.146,0,2.984,4.325,2.984,5.578,2.984a13.374,13.374,0,0,0,2.768-.259c.606-.087,3.374-.779,3.936-.779.91,0,2.119.432,2.119,1.47,0,2.682-6.7,2.855-7.74,2.855-5.493,0-8.391-2.249-8.391-5.666,0-2.768,1.644-4.152,5.708-7.439a1.837,1.837,0,0,0,.65-1.513c0-1.946-.346-4.368-2.076-4.368-1.644,0-4.194,1.989-5.319,4.584-.477,1.081-.952,2.119-2.335,2.119C6946.4,1282.747,6945.577,1282.487,6945.577,1281.319Zm11.028-16.347c.086,0,2.161-.562,2.161-1.038,0-.562-1.081-.648-1.47-.648-.605,0-.778,1.211-.778,1.384S6956.519,1264.972,6956.605,1264.972Zm3.936,14.012c0,.086.043.216.172.216s8.65-3.46,8.65-6.314a1.332,1.332,0,0,0-1.515-1.3C6964.26,1271.589,6960.541,1278.292,6960.541,1278.984Z" transform="translate(-951.56 -183.025)" fill="#1a1311"/>
    <path id="パス_28" data-name="パス 28" d="M7084.444,1366.214a4.8,4.8,0,1,1-9.6-.043,4.8,4.8,0,0,1,9.6.043Zm-8.39-.043a3.626,3.626,0,0,0,3.632,3.633,3.569,3.569,0,0,0,3.589-3.546,3.626,3.626,0,0,0-3.674-3.633A3.5,3.5,0,0,0,7076.054,1366.171Z" transform="translate(-1046.703 -257.064)" fill="#1a1311"/>
  </g>
</svg>
